<?xml version="1.0" encoding="UTF-8" standalone="no"?>
<!DOCTYPE svg PUBLIC "-//W3C//DTD SVG 1.1//EN"
 "http://www.w3.org/Graphics/SVG/1.1/DTD/svg11.dtd">
<!-- Generated by graphviz version 2.43.0 (0)
 -->
<!-- Title: %3 Pages: 1 -->
<svg width="172pt" height="332pt"
 viewBox="0.00 0.00 172.00 332.00" xmlns="http://www.w3.org/2000/svg" xmlns:xlink="http://www.w3.org/1999/xlink">
<g id="graph0" class="graph" transform="scale(1 1) rotate(0) translate(4 328)">
<title>%3</title>
<!-- A -->
<g id="node1" class="node">
<title>A</title>
<ellipse fill="none" stroke="black" cx="27" cy="-90" rx="27" ry="18"/>
<text text-anchor="middle" x="27" y="-86.3" font-family="Times,serif" font-size="14.00">A</text>
</g>
<!-- root -->
<g id="node2" class="node">
<title>root</title>
<ellipse fill="none" stroke="black" cx="63" cy="-18" rx="27" ry="18"/>
<text text-anchor="middle" x="63" y="-14.3" font-family="Times,serif" font-size="14.00">root</text>
</g>
<!-- A&#45;&gt;root -->
<g id="edge1" class="edge">
<title>A&#45;&gt;root</title>
<path fill="none" stroke="black" d="M35.35,-72.76C39.71,-64.28 45.15,-53.71 50.04,-44.2"/>
<polygon fill="black" stroke="black" points="53.23,-45.64 54.7,-35.15 47.01,-42.44 53.23,-45.64"/>
</g>
<!-- B -->
<g id="node3" class="node">
<title>B</title>
<ellipse fill="none" stroke="black" cx="99" cy="-90" rx="27" ry="18"/>
<text text-anchor="middle" x="99" y="-86.3" font-family="Times,serif" font-size="14.00">B</text>
</g>
<!-- B&#45;&gt;root -->
<g id="edge2" class="edge">
<title>B&#45;&gt;root</title>
<path fill="none" stroke="black" d="M90.65,-72.76C86.29,-64.28 80.85,-53.71 75.96,-44.2"/>
<polygon fill="black" stroke="black" points="78.99,-42.44 71.3,-35.15 72.77,-45.64 78.99,-42.44"/>
</g>
<!-- C -->
<g id="node4" class="node">
<title>C</title>
<ellipse fill="none" stroke="black" cx="27" cy="-162" rx="27" ry="18"/>
<text text-anchor="middle" x="27" y="-158.3" font-family="Times,serif" font-size="14.00">C</text>
</g>
<!-- C&#45;&gt;A -->
<g id="edge3" class="edge">
<title>C&#45;&gt;A</title>
<path fill="none" stroke="black" d="M27,-143.7C27,-135.98 27,-126.71 27,-118.11"/>
<polygon fill="black" stroke="black" points="30.5,-118.1 27,-108.1 23.5,-118.1 30.5,-118.1"/>
</g>
<!-- E -->
<g id="node5" class="node">
<title>E</title>
<ellipse fill="none" stroke="black" cx="65" cy="-234" rx="27" ry="18"/>
<text text-anchor="middle" x="65" y="-230.3" font-family="Times,serif" font-size="14.00">E</text>
</g>
<!-- E&#45;&gt;B -->
<g id="edge4" class="edge">
<title>E&#45;&gt;B</title>
<path fill="none" stroke="black" d="M69.03,-216.15C74.86,-191.81 85.69,-146.57 92.62,-117.67"/>
<polygon fill="black" stroke="black" points="96.05,-118.37 94.97,-107.82 89.24,-116.74 96.05,-118.37"/>
</g>
<!-- E&#45;&gt;C -->
<g id="edge6" class="edge">
<title>E&#45;&gt;C</title>
<path fill="none" stroke="black" d="M56.19,-216.76C51.58,-208.28 45.84,-197.71 40.68,-188.2"/>
<polygon fill="black" stroke="black" points="43.61,-186.27 35.77,-179.15 37.46,-189.61 43.61,-186.27"/>
</g>
<!-- D -->
<g id="node6" class="node">
<title>D</title>
<ellipse fill="none" stroke="black" cx="137" cy="-162" rx="27" ry="18"/>
<text text-anchor="middle" x="137" y="-158.3" font-family="Times,serif" font-size="14.00">D</text>
</g>
<!-- D&#45;&gt;B -->
<g id="edge5" class="edge">
<title>D&#45;&gt;B</title>
<path fill="none" stroke="black" d="M128.19,-144.76C123.58,-136.28 117.84,-125.71 112.68,-116.2"/>
<polygon fill="black" stroke="black" points="115.61,-114.27 107.77,-107.15 109.46,-117.61 115.61,-114.27"/>
</g>
<!-- F -->
<g id="node7" class="node">
<title>F</title>
<ellipse fill="none" stroke="black" cx="137" cy="-234" rx="27" ry="18"/>
<text text-anchor="middle" x="137" y="-230.3" font-family="Times,serif" font-size="14.00">F</text>
</g>
<!-- F&#45;&gt;D -->
<g id="edge7" class="edge">
<title>F&#45;&gt;D</title>
<path fill="none" stroke="black" d="M137,-215.7C137,-207.98 137,-198.71 137,-190.11"/>
<polygon fill="black" stroke="black" points="140.5,-190.1 137,-180.1 133.5,-190.1 140.5,-190.1"/>
</g>
<!-- G -->
<g id="node8" class="node">
<title>G</title>
<ellipse fill="none" stroke="black" cx="101" cy="-306" rx="27" ry="18"/>
<text text-anchor="middle" x="101" y="-302.3" font-family="Times,serif" font-size="14.00">G</text>
</g>
<!-- G&#45;&gt;E -->
<g id="edge8" class="edge">
<title>G&#45;&gt;E</title>
<path fill="none" stroke="black" d="M92.65,-288.76C88.29,-280.28 82.85,-269.71 77.96,-260.2"/>
<polygon fill="black" stroke="black" points="80.99,-258.44 73.3,-251.15 74.77,-261.64 80.99,-258.44"/>
</g>
<!-- G&#45;&gt;F -->
<g id="edge9" class="edge">
<title>G&#45;&gt;F</title>
<path fill="none" stroke="black" d="M109.35,-288.76C113.71,-280.28 119.15,-269.71 124.04,-260.2"/>
<polygon fill="black" stroke="black" points="127.23,-261.64 128.7,-251.15 121.01,-258.44 127.23,-261.64"/>
</g>
</g>
</svg>
