<?xml version="1.0" encoding="UTF-8" standalone="no"?>
<!DOCTYPE svg PUBLIC "-//W3C//DTD SVG 1.1//EN"
 "http://www.w3.org/Graphics/SVG/1.1/DTD/svg11.dtd">
<!-- Generated by graphviz version 2.43.0 (0)
 -->
<!-- Title: %3 Pages: 1 -->
<svg width="90pt" height="188pt"
 viewBox="0.00 0.00 90.00 188.00" xmlns="http://www.w3.org/2000/svg" xmlns:xlink="http://www.w3.org/1999/xlink">
<g id="graph0" class="graph" transform="scale(1 1) rotate(0) translate(4 184)">
<title>%3</title>
<!-- A -->
<g id="node1" class="node">
<title>A</title>
<ellipse fill="none" stroke="black" cx="27" cy="-162" rx="27" ry="18"/>
<text text-anchor="middle" x="27" y="-158.3" font-family="Times,serif" font-size="14.00">A</text>
</g>
<!-- root -->
<g id="node2" class="node">
<title>root</title>
<ellipse fill="none" stroke="black" cx="27" cy="-18" rx="27" ry="18"/>
<text text-anchor="middle" x="27" y="-14.3" font-family="Times,serif" font-size="14.00">root</text>
</g>
<!-- A&#45;&gt;root -->
<g id="edge1" class="edge">
<title>A&#45;&gt;root</title>
<path fill="none" stroke="black" d="M23.75,-143.89C21.95,-133.54 19.91,-120.06 19,-108 17.8,-92.04 17.8,-87.96 19,-72 19.64,-63.52 20.84,-54.34 22.12,-46.04"/>
<polygon fill="black" stroke="black" points="25.58,-46.55 23.75,-36.11 18.68,-45.41 25.58,-46.55"/>
</g>
<!-- B -->
<g id="node3" class="node">
<title>B</title>
<ellipse fill="none" stroke="black" cx="55" cy="-90" rx="27" ry="18"/>
<text text-anchor="middle" x="55" y="-86.3" font-family="Times,serif" font-size="14.00">B</text>
</g>
<!-- A&#45;&gt;B -->
<g id="edge3" class="edge">
<title>A&#45;&gt;B</title>
<path fill="none" stroke="black" d="M33.64,-144.41C36.91,-136.22 40.94,-126.14 44.62,-116.95"/>
<polygon fill="black" stroke="black" points="47.95,-118.05 48.41,-107.47 41.45,-115.45 47.95,-118.05"/>
</g>
<!-- B&#45;&gt;root -->
<g id="edge2" class="edge">
<title>B&#45;&gt;root</title>
<path fill="none" stroke="black" d="M48.36,-72.41C45.09,-64.22 41.06,-54.14 37.38,-44.95"/>
<polygon fill="black" stroke="black" points="40.55,-43.45 33.59,-35.47 34.05,-46.05 40.55,-43.45"/>
</g>
</g>
</svg>
